<?xml version="1.0" encoding="utf-8"?>
<!-- Generator: Adobe Illustrator 27.0.0, SVG Export Plug-In . SVG Version: 6.00 Build 0)  -->
<svg version="1.1" id="Layer_1" xmlns="http://www.w3.org/2000/svg" xmlns:xlink="http://www.w3.org/1999/xlink" x="0px" y="0px"
	 viewBox="0 0 512 512" style="enable-background:new 0 0 512 512;" xml:space="preserve">
<style type="text/css">
	.st0{fill:url(#SVGID_1_);}
	.st1{fill:#FFFFFF;}
	.st2{fill:#199CD8;}
	.st3{fill:#FFFFFF;stroke:#FFFFFF;stroke-miterlimit:10;}
</style>
<linearGradient id="SVGID_1_" gradientUnits="userSpaceOnUse" x1="-3.637979e-12" y1="256.1021" x2="512" y2="256.1021">
	<stop  offset="0" style="stop-color:#4A9CC2"/>
	<stop  offset="1" style="stop-color:#13487C"/>
</linearGradient>
<path class="st0" d="M512,486.8c0,23.4,0,25.2-21.7,25.2H21.7C0,512,0,511.8,0,488.4v-463C0,0,0,0.2,21.7,0.2h468.7
	C512,0.2,512,0,512,19.9V486.8z"/>
<g>
	<path class="st1" d="M137.8,434.7c0,18.1-13.4,36.5-49.6,36.5c-36.1,0-49.6-18.4-49.6-36.5V385c0-18.1,13.4-36.5,49.6-36.5
		c36.1,0,49.6,18.4,49.6,36.5V434.7z M109,387.3c0-9.3-6.3-15-20.7-15s-20.7,5.7-20.7,15v45c0,9.3,6.3,15,20.7,15s20.7-5.7,20.7-15
		V387.3z"/>
</g>
<g>
	<path class="st1" d="M233.1,371.4v-27.3h27.7v27.3H233.1z M233.1,469.4v-87.1h27.7v87.1H233.1z"/>
</g>
<rect x="221.7" y="324.6" class="st2" width="50.3" height="48.4"/>
<path class="st3" d="M246.9,340.1c5.8,0,9,4.2,9,8.6c0,4.4-3.2,8.6-9,8.6c-5.8,0-9-4.2-9-8.6C237.9,344.4,241.1,340.1,246.9,340.1z"
	/>
<g>
	<path class="st1" d="M358.3,371.4v-27.3h27.7v27.3H358.3z M358.3,469.4v-87.1h27.7v87.1H358.3z"/>
</g>
<rect x="346.9" y="324.6" class="st2" width="50.3" height="48.4"/>
<path class="st3" d="M372.1,340.1c5.8,0,9,4.2,9,8.6c0,4.4-3.2,8.6-9,8.6c-5.8,0-9-4.2-9-8.6C363.1,344.4,366.3,340.1,372.1,340.1z"
	/>
<g>
	<path class="st1" d="M312.8,416.3v53.1h-27.7v-87.1h23l1.9,8.4c5.8-3.6,17.7-8.8,25.2-10.2l2.3,24.3
		C329.3,407.9,318.8,412.3,312.8,416.3z"/>
</g>
<rect x="284.1" y="324.6" class="st2" width="50.3" height="48.4"/>
<g>
	<path class="st1" d="M435,471.2c-10.2,0-24.8-2.3-34-5.2l4.4-19.1c7.7,2.1,17.9,3.9,28.2,3.9c8.3,0,9.6-2.1,9.6-7.3
		c0-5.5-0.2-6.3-15.2-9.7c-22.7-5.2-24.8-10.9-24.8-27.2c0-18.4,7.7-26.1,35.7-26.1c7.1,0,20.2,0.9,28.4,2.9l-2.5,20
		c-8.3-1.4-18.4-2.5-25.7-2.5c-8.1,0-10,2-10,5.9c0,5.4,0.8,6.1,11.9,8.4c26.7,5.5,28.6,10.9,28.6,28.2
		C469.7,461.3,461.7,471.2,435,471.2z"/>
</g>
<rect x="409.7" y="324.6" class="st2" width="50.3" height="48.4"/>
<g>
	<path class="st1" d="M183.8,471.2c-10.2,0-24.8-2.3-34-5.2l4.4-19.1c7.7,2.1,17.9,3.9,28.2,3.9c8.3,0,9.6-2.1,9.6-7.3
		c0-5.5-0.2-6.3-15.2-9.7c-22.7-5.2-24.8-10.9-24.8-27.2c0-18.4,7.7-26.1,35.7-26.1c7.1,0,20.2,0.9,28.4,2.9l-2.5,20
		c-8.3-1.4-18.4-2.5-25.7-2.5c-8.1,0-10,2-10,5.9c0,5.4,0.8,6.1,11.9,8.4c26.7,5.5,28.6,10.9,28.6,28.2
		C218.6,461.3,210.5,471.2,183.8,471.2z"/>
</g>
<rect x="158.6" y="324.6" class="st2" width="50.3" height="48.4"/>
<g>
</g>
<g>
</g>
<g>
</g>
<g>
</g>
<g>
</g>
<g>
</g>
</svg>
